PathFileType	4	(X/Y/Z)	59_1_5_p0_0-338_filt_butterworth.trc
DataRate	CameraRate	NumFrames	NumMarkers	Units	OrigDataRate	OrigDataStartFrame	OrigNumFrames
59.0	59.0	7	27	m	59.0	126	338
Frame#	Time	RHip			RKnee			RAnkle			RBigToe			RSmallToe			RHeel			LHip			LKnee			LAnkle			LBigToe			LSmallToe			LHeel			Neck			Head			Nose			RShoulder			RElbow			RWrist			RThumb			RIndex			RPinky			LShoulder			LElbow			LWrist			LThumb			LIndex			LPinky			
		X1	Y1	Z1	X2	Y2	Z2	X3	Y3	Z3	X4	Y4	Z4	X5	Y5	Z5	X6	Y6	Z6	X7	Y7	Z7	X8	Y8	Z8	X9	Y9	Z9	X10	Y10	Z10	X11	Y11	Z11	X12	Y12	Z12	X13	Y13	Z13	X14	Y14	Z14	X15	Y15	Z15	X16	Y16	Z16	X17	Y17	Z17	X18	Y18	Z18	X19	Y19	Z19	X20	Y20	Z20	X21	Y21	Z21	X22	Y22	Z22	X23	Y23	Z23	X24	Y24	Z24	X25	Y25	Z25	X26	Y26	Z26	X27	Y27	Z27	
126	2.135593220338983	0.360436580659857	0.45867127637417904	0.958047785681519	0.3447869716591876	0.5979578300354821	1.4361050574188807	0.3013586464523193	0.7371567634958502	1.8882478692903697	0.2921279744882672	0.5594500922853786	1.9318731864402297	0.3464997319602468	0.5832499846849374	1.9257388227933987	0.28084174920862454	0.8287410361414146	1.962532258695011	0.16011746455316417	0.4703960992930023	0.9607857225480242	0.15870883982087186	0.5639086404406091	1.4281207862909764	0.12917443798662395	0.7394685229989915	1.8831284689129377	0.12419682835288573	0.5457830237100485	1.9201384778287347	0.06733026872347818	0.6056530217560496	1.9235088269674732	0.14803597484071104	0.8183891584841958	1.9515437305813075	0.27195138447994344	0.4407239219433955	0.3692237104479588	0.24115966360070423	0.2873349761569012	0.1404256795276804	0.23376194002206352	0.25814089436011145	0.2960801114611103	0.4232992120834852	0.464764631430408	0.4454584532823524	0.4744441365999499	0.36633473500057456	0.724549454007081	0.524188608753163	0.09419847956466285	0.6789851525863604	0.5433250510233887	-0.05027216956898431	0.6112765923353345	0.5488387507678287	-0.032829238670502234	0.6210754973544268	0.5341697314232108	-0.00807429417923641	0.6671228249184955	0.12155747834656465	0.4655431904370063	0.43467358387244004	-0.06469577025610032	0.3767337778107555	0.6333470671075104	-0.06812950641461304	0.16776786503706376	0.4766499146667543	-0.056160873012541586	0.10561214968908342	0.3832196480883217	-0.08749072044846293	0.04920585604927461	0.37332211812133426	-0.08239440432788636	0.05608201067010751	0.4130170557732313
127	2.152542372881356	0.3602867496489293	0.45946206912974963	0.9600577206351769	0.3444820807280479	0.5970158987537224	1.4349821534129856	0.3003748339981702	0.7382013380676303	1.8889285361711798	0.2900347378101841	0.5525071177082554	1.9288243935417797	0.34640391375737484	0.5830327687073904	1.9261727418210837	0.28091770202590927	0.8288562022717904	1.9626086444338922	0.15992030288991266	0.47053597223733007	0.9602257465186975	0.15893712228520984	0.5648400511233496	1.4289190046368538	0.12909955174623333	0.7392315259349771	1.8825792174626095	0.12415998824768361	0.5457085684585223	1.9200152022844816	0.06732971181570803	0.6060592729299628	1.923669305238986	0.1480236851162283	0.8191619729508524	1.9505274275837605	0.272036485373133	0.441287619761384	0.369216887323965	0.2419617289743125	0.2875139200204232	0.1386042360929443	0.2366546204657905	0.25460128235711227	0.2969224416521066	0.4251240660074946	0.45850991668102214	0.44755974536000914	0.4661602421081712	0.3844102813843964	0.7260690973240765	0.5136321430691019	0.11760526661600013	0.7075295726484174	0.5360076369704347	-0.03191840683155143	0.6449310497888144	0.5381621866734717	-0.019126683255465977	0.6591926632811895	0.516774027979599	0.000881938699081726	0.7061470998073196	0.11799782040879042	0.4745064813667036	0.435321394263306	-0.05621452376004946	0.3942877886283071	0.6494321744512624	-0.07109769328412008	0.18040468345329522	0.5048038071521525	-0.06435325877244441	0.09327327902639529	0.4146489531237342	-0.0904544798535104	0.046798563689369056	0.40639482207142247	-0.08705298820622935	0.05603024085657542	0.4449696310192435
128	2.169491525423729	0.3601813537856925	0.4603603017607501	0.9619140104906366	0.34436191108113196	0.5963346781766063	1.4340177915830046	0.298778196114971	0.7409452225939717	1.8896948297637264	0.2881433206457517	0.5459774705670607	1.926078495364207	0.3465469211934696	0.5831914085607374	1.926744812345052	0.2800300111168126	0.824850146563603	1.9625113871376267	0.15961721892137715	0.4706537761921927	0.9593435053297352	0.15873078109955874	0.564111683877066	1.4279232797244732	0.12912533344062965	0.7392793889918421	1.8825960084130422	0.12374266017472414	0.5437708450554828	1.9189598299512791	0.06730531855173866	0.6064446918485737	1.9238513899096594	0.1481271571549806	0.8195724309816123	1.9500509507161015	0.27228544686395256	0.4419250743163326	0.36919033903152954	0.24305483904480812	0.28549582106965304	0.13816210526845044	0.24035862470998526	0.24876392947769432	0.2990782573333158	0.42687096092911103	0.4506589825002051	0.4490972522430713	0.46136899383669955	0.3960807397440773	0.7236674998694934	0.5054296295855947	0.13301741441502762	0.732833338614286	0.5260294324795018	-0.019648569573986994	0.6814063853022588	0.5223530004634168	-0.018258487532567452	0.6976493758591233	0.4983404303606492	0.0022666493353452445	0.7455553937950224	0.11490205421386264	0.48346057988862584	0.43476231167333884	-0.045181423662535636	0.4182368333466707	0.6667777218218187	-0.07185025635909983	0.18663089607663014	0.5335061114034868	-0.07327855419511561	0.08095317726264839	0.44612903646990865	-0.0916696344232535	0.04753980906633742	0.4401169387859818	-0.09073117831431173	0.05797180822769664	0.4786107394588089
129	2.1864406779661016	0.3601287865671724	0.4609705935687454	0.9626267402793993	0.34425236290954575	0.5961531305693626	1.4335811265939382	0.2964330693497605	0.7459213200301302	1.8901548638481889	0.2871463873134564	0.5420492047943356	1.9248105134299323	0.34707425077972764	0.5837361277070071	1.927651963258614	0.27863017873415075	0.8191118209473183	1.9621169939779852	0.15934633966382455	0.4707706646792687	0.9588627132257648	0.1584078190535037	0.5632539622264944	1.4258907693666272	0.12917069438617043	0.739384206682155	1.8827353349616502	0.12284487438958068	0.5395952636188145	1.9167703687963156	0.06727143606523207	0.6060633245275853	1.9237445363931953	0.1482703521137292	0.8196413792296089	1.94999690238038	0.2725997018411132	0.4415593675257396	0.3692909568175079	0.24546944347386815	0.27860703368970485	0.13933213294172883	0.24439340975026394	0.24099932229581092	0.30084871402175345	0.42848279825506036	0.44256484923839645	0.44956824117109234	0.4607822756536714	0.4042895553044175	0.7198550301933525	0.5005485573806387	0.1403594222394077	0.7552156243546946	0.5114032851158153	-0.014110342249351947	0.7206161191396631	0.503281364983958	-0.024634750164956903	0.7363649840748986	0.4829807558765087	0.007700837747102032	0.7848852797434409	0.11318651311866601	0.4882362875878117	0.43440742382581465	-0.03397052403587929	0.44345827701228446	0.6832318365975274	-0.07046373610505437	0.1860133506254828	0.5631440868937323	-0.0804175753920882	0.07313680735129398	0.47852667351226286	-0.09372936502254617	0.05166061044645566	0.47503990502134763	-0.09398382488640286	0.06341275419060105	0.5148760523885769
130	2.2033898305084745	0.3600644270439079	0.46108572328877895	0.9620421957140876	0.34368557484659384	0.5960621393068228	1.4335385194140882	0.2937533021467157	0.7516953497801516	1.8903490795646885	0.28694592725839985	0.5405882699507348	1.9249149654454767	0.3480703388467349	0.5844344264422752	1.9283247918649304	0.2771583087483917	0.8148360861670749	1.9613244526275473	0.1592435297165768	0.47094401521033596	0.9592664167422351	0.15830048242265837	0.563162700355959	1.4247686781221236	0.12919478504238074	0.7394664263661324	1.8828304176330106	0.12168108688617463	0.5342006012752123	1.9137671386375137	0.06724754218866057	0.6038433573511596	1.9228518386196947	0.14838952075979475	0.8195757563288057	1.950604558668892	0.2728257667612018	0.43917650500542915	0.3695931671206792	0.24907853335497393	0.2675855393930761	0.1415612680086797	0.24769785041568024	0.23356210505989716	0.3015384083968593	0.4299494969593848	0.4351269796347112	0.4494566333682325	0.4642654883308152	0.4108834586863896	0.7166772688166841	0.49849359858293507	0.1440760792297624	0.7760533521564708	0.4916960735877342	-0.009502680781387551	0.7604458417655484	0.4842662593700194	-0.025387396369872407	0.7747720088107157	0.4726397619323769	0.022626259097819956	0.823265463355551	0.1122340436550204	0.4876028592009919	0.43544829405037955	-0.024254860212841456	0.4646141320006191	0.6970474076272647	-0.06884649447545156	0.18564163800555972	0.5938848404819502	-0.08480401080558533	0.07067555849208007	0.5143141292629864	-0.09781913048368499	0.05937200259327122	0.5134006190251239	-0.09750028956600118	0.07072693549224132	0.5542478763967114
131	2.2203389830508478	0.3599326063965234	0.46077883616415216	0.9608824441099219	0.3422919846934129	0.5953046552532144	1.433697810073539	0.2917624230091471	0.7556730280008673	1.8913653421881118	0.2874753140343595	0.541877394458941	1.9259188700656285	0.34949313209000443	0.5848841306295716	1.9282236542540716	0.27561795998867233	0.8132665483511408	1.9602969409272766	0.15931422724474098	0.47119431025582315	0.9600920491403344	0.15843749564633952	0.5635491813146709	1.4255489120397022	0.1291954708023807	0.739530634662803	1.8828922187959092	0.12079447918447604	0.5299361135669	1.9111287392886422	0.06723944353898541	0.5992916528603245	1.9209186009911814	0.14841269248250652	0.8194730405169233	1.9524906922794076	0.27291543849175437	0.43523779458456346	0.3700634186449784	0.2529814227498607	0.2567607275021688	0.1438285425986284	0.24970752592074577	0.22815763433640546	0.30183262669970534	0.4312848697737997	0.42930372639264625	0.449813093228694	0.4701091377128074	0.41568623945807975	0.7157834451094054	0.49637686584976587	0.14976381182215848	0.7972455838565893	0.4696975713056518	-0.0009117230065995045	0.8001227895597651	0.4673142761952431	-0.013343997442129104	0.8132096575205348	0.46595896058590236	0.041680692507987886	0.8601127125527407	0.11093829929032545	0.4837854897865148	0.4379789741655274	-0.014953229764380613	0.4778577589270335	0.7063360446580313	-0.06815619249137167	0.19142784099074583	0.6252193565395827	-0.08728978068939987	0.07290602325229498	0.5536475160214667	-0.1026804444979119	0.06860864035516032	0.5559908072183327	-0.10069853915596098	0.0762331985403934	0.5976081224655281
132	2.23728813559322	0.3599024250930831	0.46017531344848506	0.9592359435989971	0.3405035213370317	0.5932143081276386	1.433915860936266	0.29100588849628073	0.7568647831628454	1.8940883983153907	0.2885220777586751	0.5455027707573712	1.9271577448409518	0.3509035854412102	0.5850007361526091	1.9276648580226738	0.2741762180512361	0.8139184210467635	1.9596311367333032	0.15938548906079036	0.4713525494770213	0.9595186478884551	0.158324436910067	0.5629255043106542	1.4264947035528612	0.1291837809740118	0.7395799774913695	1.882949969096036	0.12042954048175547	0.5279454000491637	1.909571777360227	0.0672386368603741	0.5937743474888816	1.918536959201113	0.14823608824729742	0.819379294002379	1.9555710328261775	0.27293750802744565	0.43061550588040487	0.3706261781409523	0.25698730565803696	0.24972186037047248	0.14513899704679434	0.25095474593803535	0.22419207503983873	0.30231152970577635	0.4324688200489957	0.4250867511744856	0.45088766673822767	0.47579136556075335	0.41893747535591463	0.7180654064271332	0.49113075875708473	0.16177727168591047	0.8206466427556512	0.4506287829250978	0.011151694738257353	0.8404399129804427	0.45367561279954915	0.00747972246633887	0.8528092026823981	0.46023887743095115	0.05909874057140563	0.8957750348016299	0.10928712639018592	0.480128288679731	0.4409223602170878	-0.002600480997076216	0.4807555559247633	0.7095555199671889	-0.06750451351654205	0.20234982396588957	0.6564273448032474	-0.08877945253546418	0.07998338119645651	0.5948084597708634	-0.10619710929053058	0.07693705488169424	0.6011524083569153	-0.10239724434281755	0.0789342602191894	0.6453650885467733
